<svg width="48" height="48" viewBox="0 0 48 48" fill="none" xmlns="http://www.w3.org/2000/svg">
<path d="M1.5 15C1.5 13.6193 2.61929 12.5 4 12.5H44C45.3807 12.5 46.5 13.6193 46.5 15V25C46.5 26.3807 45.3807 27.5 44 27.5H4C2.61929 27.5 1.5 26.3807 1.5 25V15Z" stroke="#152C5B" stroke-width="3"/>
<path d="M28 19C26.95 19.0059 22.8959 19.0289 21.0001 19.0396" stroke="#FF498B" stroke-width="3" stroke-linecap="round" stroke-linejoin="round"/>
<path d="M39.205 41.9934C37.182 40.6257 36.0455 34.9433 38.8431 32" stroke="#152C5B" stroke-width="3" stroke-linecap="round" stroke-linejoin="round"/>
<path d="M7 32.1002C9.04754 33.4309 10.287 39.0918 7.54329 42.0854" stroke="#152C5B" stroke-width="3" stroke-linecap="round" stroke-linejoin="round"/>
<path d="M34.205 41.9934C32.182 40.6257 31.0455 34.9433 33.8431 32" stroke="#152C5B" stroke-width="3" stroke-linecap="round" stroke-linejoin="round"/>
<path d="M12 32.1002C14.0475 33.4309 15.287 39.0918 12.5433 42.0854" stroke="#152C5B" stroke-width="3" stroke-linecap="round" stroke-linejoin="round"/>
<path d="M46 23C39.55 23 14.6458 23 3 23" stroke="#152C5B" stroke-width="3" stroke-linecap="round" stroke-linejoin="round"/>
</svg>
