<svg width="23" height="23" viewBox="0 0 23 23" fill="none" xmlns="http://www.w3.org/2000/svg">
<rect x="0.5" y="3.5" width="22" height="19" rx="3.5" stroke="white"/>
<path d="M0.5 9H22.5" stroke="white"/>
<path d="M4 0.5V5.5" stroke="white" stroke-linecap="round"/>
<path d="M19 0.5V5.5" stroke="white" stroke-linecap="round"/>
<path d="M14 6.00815L9 5.99999" stroke="white" stroke-linecap="round"/>
<rect x="2.5" y="11.5" width="3" height="3" rx="0.5" stroke="white" stroke-linecap="round"/>
<rect x="2.5" y="16.5" width="3" height="3" rx="0.5" stroke="white" stroke-linecap="round"/>
<rect x="7.5" y="11.5" width="3" height="3" rx="0.5" stroke="white" stroke-linecap="round"/>
<rect x="7.5" y="16.5" width="3" height="3" rx="0.5" stroke="white" stroke-linecap="round"/>
<rect x="12.5" y="11.5" width="3" height="3" rx="0.5" stroke="white" stroke-linecap="round"/>
<rect x="12.5" y="16.5" width="3" height="3" rx="0.5" stroke="white" stroke-linecap="round"/>
<rect x="17.5" y="11.5" width="3" height="3" rx="0.5" stroke="white" stroke-linecap="round"/>
<rect x="17.5" y="16.5" width="3" height="3" rx="0.5" stroke="white" stroke-linecap="round"/>
</svg>
