<svg width="48" height="48" viewBox="0 0 48 48" fill="none" xmlns="http://www.w3.org/2000/svg">
<path d="M28.5 38C28.5 40.4853 26.4853 42.5 24 42.5C21.5147 42.5 19.5 40.4853 19.5 38C19.5 35.5147 21.5147 33.5 24 33.5C26.4853 33.5 28.5 35.5147 28.5 38Z" stroke="#FF498B" stroke-width="3"/>
<path d="M14.9463 30.7096C18.0991 27.7812 26.5113 23.7972 34.9379 31.2887" stroke="#152C5B" stroke-width="2" stroke-linecap="round"/>
<path d="M11 26C15.14 21.4723 26.336 15.1334 38 26" stroke="#152C5B" stroke-width="2" stroke-linecap="round"/>
<path d="M6 20C11.6733 14.7176 27.016 7.32232 43 20" stroke="#152C5B" stroke-width="2" stroke-linecap="round"/>
<path d="M2 16C8.9 8.45376 27.56 -2.11097 47 16" stroke="#152C5B" stroke-width="2" stroke-linecap="round"/>
</svg>
