<svg width="48" height="48" viewBox="0 0 48 48" fill="none" xmlns="http://www.w3.org/2000/svg">
<path d="M42 5C42 6.95 42 14.4792 42 18" stroke="#FF498B" stroke-width="3" stroke-linecap="round" stroke-linejoin="round"/>
<path d="M42 5L39.031 2.87444C38.3074 2.3564 37.3285 2.3788 36.6294 2.92938L34 5" stroke="#FF498B" stroke-width="3" stroke-linecap="round"/>
<path d="M1.5 22.2C1.5 20.8193 2.61929 19.7 4 19.7H44C45.3807 19.7 46.5 20.8193 46.5 22.2V22.7333C46.5 24.114 45.3807 25.2333 44 25.2333H4C2.61929 25.2333 1.5 24.114 1.5 22.7333V22.2Z" stroke="#152C5B" stroke-width="3"/>
<path d="M5.5 26.0333H42.5V35.4667C42.5 36.8474 41.3807 37.9667 40 37.9667H8C6.61929 37.9667 5.5 36.8474 5.5 35.4667V26.0333Z" stroke="#152C5B" stroke-width="3"/>
<path d="M37 39.4667C37 39.9467 37 41.8 37 42.6667" stroke="#152C5B" stroke-width="3" stroke-linecap="round" stroke-linejoin="round"/>
<path d="M11 39.4667C11 39.9467 11 41.8 11 42.6667" stroke="#152C5B" stroke-width="3" stroke-linecap="round" stroke-linejoin="round"/>
</svg>
