<svg width="48" height="48" viewBox="0 0 48 48" fill="none" xmlns="http://www.w3.org/2000/svg">
<path d="M39.5 41C39.5 41.4211 39.2928 41.9741 38.5941 42.6349C37.8922 43.2986 36.7961 43.9655 35.3173 44.557C32.3679 45.7368 28.1905 46.5 23.5 46.5C18.8095 46.5 14.6321 45.7368 11.6827 44.557C10.2039 43.9655 9.10776 43.2986 8.4059 42.6349C7.70721 41.9741 7.5 41.4211 7.5 41C7.5 40.5789 7.70721 40.0259 8.4059 39.3651C9.10776 38.7014 10.2039 38.0345 11.6827 37.443C14.6321 36.2632 18.8095 35.5 23.5 35.5C28.1905 35.5 32.3679 36.2632 35.3173 37.443C36.7961 38.0345 37.8922 38.7014 38.5941 39.3651C39.2928 40.0259 39.5 40.5789 39.5 41Z" stroke="#152C5B" stroke-width="3"/>
<path d="M34.5 12.1412C34.5 15.2613 33.0996 22.7993 30.7731 29.5996C29.6145 32.9864 28.262 36.0805 26.8062 38.2981C26.0783 39.4069 25.3634 40.2362 24.6859 40.7754C24.013 41.3109 23.4567 41.5 23 41.5C22.5433 41.5 21.987 41.3109 21.3141 40.7754C20.6366 40.2362 19.9217 39.4069 19.1938 38.2981C17.738 36.0805 16.3855 32.9864 15.2269 29.5996C12.9004 22.7993 11.5 15.2613 11.5 12.1412C11.5 6.35913 16.5505 1.5 23 1.5C29.4495 1.5 34.5 6.35913 34.5 12.1412Z" fill="white" stroke="#152C5B" stroke-width="3"/>
<path d="M27.5 13C27.5 15.4853 25.4853 17.5 23 17.5C20.5147 17.5 18.5 15.4853 18.5 13C18.5 10.5147 20.5147 8.5 23 8.5C25.4853 8.5 27.5 10.5147 27.5 13Z" stroke="#FF498B" stroke-width="3"/>
</svg>
