<svg width="48" height="48" viewBox="0 0 48 48" fill="none" xmlns="http://www.w3.org/2000/svg">
<path d="M7.39394 20.6132C7.85761 19.9178 8.63818 19.5 9.47407 19.5H38.5259C39.3618 19.5 40.1424 19.9178 40.6061 20.6132L42.6061 23.6133C43.7136 25.2746 42.5227 27.5 40.5259 27.5H7.47407C5.47733 27.5 4.28635 25.2746 5.39394 23.6132L7.39394 20.6132Z" stroke="#152C5B" stroke-width="3"/>
<path d="M41.5 28.5L41.5 42C41.5 43.3807 40.3807 44.5 39 44.5C37.6193 44.5 36.5 43.3807 36.5 42L36.5 28.5L41.5 28.5Z" stroke="#152C5B" stroke-width="3"/>
<path d="M11.5 28.5L11.5 42C11.5 43.3807 10.3807 44.5 9 44.5C7.61929 44.5 6.5 43.3807 6.5 42L6.5 28.5L11.5 28.5Z" stroke="#152C5B" stroke-width="3"/>
<path d="M11.5 28.5L11.5 42C11.5 43.3807 10.3807 44.5 9 44.5C7.61929 44.5 6.5 43.3807 6.5 42L6.5 28.5L11.5 28.5Z" stroke="#152C5B" stroke-width="3"/>
<path d="M17 11C17 12.05 17 16.1042 17 18" stroke="#152C5B" stroke-width="3" stroke-linecap="round" stroke-linejoin="round"/>
<path d="M31 11C31 12.05 31 16.1042 31 18" stroke="#152C5B" stroke-width="3" stroke-linecap="round" stroke-linejoin="round"/>
<path d="M19.5 3.5L19.5 8C19.5 9.38071 18.3807 10.5 17 10.5C15.6193 10.5 14.5 9.38071 14.5 8L14.5 3.5L19.5 3.5Z" stroke="#FF498B" stroke-width="3"/>
<path d="M33.5 3.5L33.5 8C33.5 9.38071 32.3807 10.5 31 10.5C29.6193 10.5 28.5 9.38071 28.5 8L28.5 3.5L33.5 3.5Z" stroke="#FF498B" stroke-width="3"/>
</svg>
