<svg width="48" height="48" viewBox="0 0 48 48" fill="none" xmlns="http://www.w3.org/2000/svg">
<path d="M24 13C24 14.95 24 22.4792 24 26" stroke="#152C5B" stroke-width="3" stroke-linecap="round" stroke-linejoin="round"/>
<path d="M29 13C29 13.6 29 15.9167 29 17" stroke="#152C5B" stroke-width="2" stroke-linecap="round" stroke-linejoin="round"/>
<path d="M18.2444 2.88198C18.2988 2.65781 18.4995 2.5 18.7302 2.5H29.2698C29.5005 2.5 29.7012 2.65781 29.7556 2.88197L31.9419 11.882C32.0183 12.1967 31.7799 12.5 31.456 12.5H16.544C16.2201 12.5 15.9817 12.1967 16.0581 11.882L18.2444 2.88198Z" stroke="#FF498B" stroke-width="3"/>
<path d="M13.5 30C13.5 28.6193 14.6193 27.5 16 27.5H32C33.3807 27.5 34.5 28.6193 34.5 30V35C34.5 36.3807 33.3807 37.5 32 37.5H16C14.6193 37.5 13.5 36.3807 13.5 35V30Z" stroke="#152C5B" stroke-width="3"/>
<path d="M28 39C28 40.05 28 44.1042 28 46" stroke="#152C5B" stroke-width="3" stroke-linecap="round" stroke-linejoin="round"/>
<path d="M20 39C20 40.05 20 44.1042 20 46" stroke="#152C5B" stroke-width="3" stroke-linecap="round" stroke-linejoin="round"/>
</svg>
