<svg width="48" height="48" viewBox="0 0 48 48" fill="none" xmlns="http://www.w3.org/2000/svg">
<mask id="path-1-inside-1" fill="white">
<path fill-rule="evenodd" clip-rule="evenodd" d="M18.3392 9C17.5288 9 16.7986 9.48897 16.4899 10.2382L14.7273 14.5172H9C4.58172 14.5172 1 18.099 1 22.5172V33C1 37.4183 4.58172 41 9 41H39C43.4183 41 47 37.4183 47 33V22.5172C47 18.099 43.4183 14.5172 39 14.5172H34.2727L32.5101 10.2382C32.2014 9.48897 31.4712 9 30.6608 9H18.3392Z"/>
</mask>
<path d="M16.4899 10.2382L19.2638 11.3809L16.4899 10.2382ZM14.7273 14.5172V17.5172H16.736L17.5011 15.6599L14.7273 14.5172ZM34.2727 14.5172L31.4989 15.6599L32.264 17.5172H34.2727V14.5172ZM32.5101 10.2382L29.7362 11.3809V11.3809L32.5101 10.2382ZM19.2638 11.3809C19.1095 11.7555 18.7443 12 18.3392 12V6C16.3133 6 14.4877 7.22243 13.7161 9.09559L19.2638 11.3809ZM17.5011 15.6599L19.2638 11.3809L13.7161 9.09559L11.9534 13.3746L17.5011 15.6599ZM9 17.5172H14.7273V11.5172H9V17.5172ZM4 22.5172C4 19.7558 6.23857 17.5172 9 17.5172V11.5172C2.92487 11.5172 -2 16.4421 -2 22.5172H4ZM4 33V22.5172H-2V33H4ZM9 38C6.23858 38 4 35.7614 4 33H-2C-2 39.0751 2.92487 44 9 44V38ZM39 38H9V44H39V38ZM44 33C44 35.7614 41.7614 38 39 38V44C45.0751 44 50 39.0751 50 33H44ZM44 22.5172V33H50V22.5172H44ZM39 17.5172C41.7614 17.5172 44 19.7558 44 22.5172H50C50 16.4421 45.0751 11.5172 39 11.5172V17.5172ZM34.2727 17.5172H39V11.5172H34.2727V17.5172ZM29.7362 11.3809L31.4989 15.6599L37.0466 13.3746L35.2839 9.09559L29.7362 11.3809ZM30.6608 12C30.2556 12 29.8905 11.7555 29.7362 11.3809L35.2839 9.09559C34.5123 7.22243 32.6867 6 30.6608 6V12ZM18.3392 12H30.6608V6H18.3392V12Z" fill="#152C5B" mask="url(#path-1-inside-1)"/>
<path d="M30.5 26.5C30.5 29.8137 27.8137 32.5 24.5 32.5C21.1863 32.5 18.5 29.8137 18.5 26.5C18.5 23.1863 21.1863 20.5 24.5 20.5C27.8137 20.5 30.5 23.1863 30.5 26.5Z" stroke="#FF498B" stroke-width="3"/>
<path d="M33 20H40" stroke="#FF498B" stroke-width="2" stroke-linecap="round"/>
</svg>
