<svg width="28" height="28" viewBox="0 0 28 28" fill="none" xmlns="http://www.w3.org/2000/svg">
<path d="M12.0979 1.8541C12.6966 0.0114756 15.3034 0.0114808 15.9021 1.8541L17.8167 7.74671C18.0845 8.57076 18.8524 9.12868 19.7189 9.12868H25.9147C27.8522 9.12868 28.6577 11.6079 27.0903 12.7467L22.0777 16.3885C21.3767 16.8978 21.0834 17.8006 21.3512 18.6246L23.2658 24.5172C23.8645 26.3598 21.7556 27.8921 20.1881 26.7533L15.1756 23.1115C14.4746 22.6022 13.5254 22.6022 12.8244 23.1115L7.81187 26.7533C6.24444 27.8921 4.13549 26.3598 4.73419 24.5172L6.64882 18.6246C6.91657 17.8006 6.62325 16.8978 5.92227 16.3885L0.909718 12.7467C-0.65771 11.6079 0.147847 9.12868 2.08529 9.12868H8.28115C9.1476 9.12868 9.91551 8.57076 10.1833 7.74671L12.0979 1.8541Z" fill="#F5C67F"/>
</svg>
